# xmcd
# 
# Track frame offsets:
#     150
#     14885
#     32062
#     48067
#     63345
#     80270
#     98287
#     112555
#     127625
#     142742
# 
# Disc length: 2071
# 
# Revision: 1
# Processed by: cddbd v1.5.2PL0 Copyright (c) Steve Scherf et al.
# Submitted via: fre:ac v1.0.31
# 
DISCID=6408150a
DTITLE=Doug Supernaw - Red And Rio Grande
DYEAR=1993
DGENRE=Country
TTITLE0=Honky Tonkin' Fool
TTITLE1=I Don't Call Him Daddy
TTITLE2=Reno
TTITLE3=The Perfect Picture (To Fit My Frame Of Mind)
TTITLE4=Five Generations Of Rock County Wilsons
TTITLE5=Red And Rio Grande
TTITLE6=You're Gonna Bring Back Cheatin' Songs
TTITLE7=I Would Have Loved You All Night Long
TTITLE8=Daddy's Girl
TTITLE9=Carousel
EXTD=
EXTT0=
EXTT1=
EXTT2=
EXTT3=
EXTT4=
EXTT5=
EXTT6=
EXTT7=
EXTT8=
EXTT9=
PLAYORDER=
